<svg width="83" height="113" viewBox="0 0 83 113" fill="none" xmlns="http://www.w3.org/2000/svg">
<path d="M38.8443 7.58901L41.3016 12.8682C16.4218 17.4436 -0.16474 39.2644 1.06395 64.4287C1.83184 91.5287 14.886 110.382 36.3871 111.942C48.5198 112.822 59.2703 103.671 60.499 88.8891C61.3496 78.6548 54.5094 70.9397 45.6018 70.5878C40.1752 70.3734 34.3906 74.8112 34.3906 81.1462C34.3906 84.8417 36.6942 88.1852 39.3051 88.3612C40.2564 88.4253 41.0282 88.1242 42.0695 87.3054C40.697 86.8378 39.9194 85.9007 39.9194 83.7859C39.9194 81.3222 41.6088 79.5625 43.7589 79.5625C45.7554 79.5625 48.2127 81.1462 48.2127 85.0177C48.2127 89.945 43.7589 93.8164 39.1515 93.8164C33.6227 93.8164 28.401 88.3612 28.401 80.2664C28.401 69.356 36.2335 61.6836 50.2092 61.6131C56.5808 61.581 60.084 62.1218 66.1814 64.4287L65.8742 61.6131C65.4135 55.9819 61.1133 53.1663 54.663 52.6384L49.4413 52.1105V51.5826C65.1063 51.9345 77.5462 40.8481 82 26.2423C75.7033 13.2202 61.1133 1.95783 46.3697 1.07796C42.2231 0.550048 39.4587 2.8377 38.8443 3.89355C37.9412 5.44587 38.23 6.18122 38.8443 7.58901Z" fill="white"/>
<path d="M38.7069 7.649L38.7068 7.64902L38.7084 7.65231L41.084 12.7561C16.2338 17.4216 -0.314274 39.263 0.914049 64.4345C1.29882 78.0053 4.75998 89.525 10.8294 97.8514C16.9014 106.181 25.5799 111.308 36.3762 112.091C48.6014 112.978 59.4139 103.754 60.6484 88.9015C61.5055 78.5904 54.6087 70.7935 45.6077 70.4379C40.1086 70.2206 34.2406 74.7139 34.2406 81.1462C34.2406 83.0238 34.8254 84.8131 35.7449 86.1582C36.6627 87.5006 37.9279 88.4187 39.295 88.5108C40.2964 88.5784 41.104 88.2554 42.1622 87.4233L42.3794 87.2525L42.1179 87.1634C41.4532 86.9369 40.9477 86.6024 40.6051 86.081C40.2609 85.557 40.0694 84.8265 40.0694 83.7859C40.0694 81.3937 41.7025 79.7125 43.7589 79.7125C44.7189 79.7125 45.7931 80.0937 46.6274 80.9434C47.4598 81.7912 48.0627 83.1152 48.0627 85.0177C48.0627 89.8531 43.6853 93.6664 39.1515 93.6664C33.7289 93.6664 28.551 88.3038 28.551 80.2664C28.551 74.849 30.4944 70.246 34.1638 66.9869C37.835 63.7263 43.2486 61.7982 50.2099 61.7631C56.5648 61.731 60.0496 62.2692 66.1283 64.569L66.357 64.6555L66.3305 64.4124L66.0237 61.6009C66.0237 61.6002 66.0236 61.5994 66.0235 61.5987C65.7895 58.7441 64.5796 56.5932 62.6055 55.0926C60.636 53.5957 57.9176 52.7545 54.6765 52.489C54.6761 52.489 54.6756 52.489 54.6752 52.4889L49.5913 51.9749V51.7356C65.2644 52.0138 77.6887 40.8951 82.1435 26.286L82.1606 26.2299L82.135 26.177C75.8193 13.1155 61.1881 1.81438 46.3837 0.928529C44.2802 0.661793 42.5245 1.10837 41.2158 1.75746C39.9111 2.40453 39.0405 3.25816 38.7147 3.81812C38.2542 4.60959 38.0869 5.21149 38.1256 5.80524C38.1637 6.38999 38.402 6.95038 38.7069 7.649Z" stroke="#A950C4" stroke-opacity="0.88" stroke-width="0.3"/>
<path d="M49.3846 50.9919C65.0769 51.3427 77.5385 40.2906 82 25.7298C79.3652 28.5352 77.6679 30.0751 74.1538 30.1155C70.6398 30.1559 68.6154 27.1332 63.2308 25.7298C57.8462 24.3263 44 25.3789 44 25.3789C47.4921 35.1407 49.2498 40.6484 49.3846 50.9919Z" fill="white"/>
<path d="M39.3182 94.4343C33.7273 94.4343 28.4471 88.9326 28.4471 80.7687C28.4515 78.4619 28.7647 77.1256 29.3789 74.7345C22.701 89.465 30.9317 108.516 43.5111 108.987C52.9845 109.342 59.6624 102.243 60.905 89.465C61.9072 79.1601 54.8483 71.3625 45.8408 71.0075C40.3534 70.7913 34.5039 75.2669 34.5039 81.6561C34.5039 85.383 36.8334 88.7551 39.4735 88.9326C40.4355 88.9972 41.216 88.6935 42.2689 87.8677C40.881 87.3962 40.0947 86.4511 40.0947 84.3182C40.0947 81.8335 41.803 80.0588 43.9772 80.0588C45.9961 80.0588 48.4809 81.6561 48.4809 85.5605C48.4809 90.5298 43.9772 94.4343 39.3182 94.4343Z" fill="white" stroke="#A950C4" stroke-opacity="0.88" stroke-width="0.3"/>
<path d="M39 31C16.1799 34.9611 6.13906 61.6556 21.0482 93C22.3108 55.0936 27.0071 39.8595 39 31Z" fill="url(#paint0_linear_3_3)"/>
<ellipse cx="56" cy="17.5" rx="4" ry="4.5" fill="#A950C4" fill-opacity="0.88"/>
<circle cx="56" cy="18" r="1" fill="white"/>
<defs>
<linearGradient id="paint0_linear_3_3" x1="26.5" y1="31" x2="26.5" y2="93" gradientUnits="userSpaceOnUse">
<stop stop-color="#A950C4" stop-opacity="0.88"/>
<stop offset="1" stop-color="#A950C4"/>
</linearGradient>
</defs>
</svg>
