<svg width="722" height="458" viewBox="0 0 722 458" fill="none" xmlns="http://www.w3.org/2000/svg">
<g filter="url(#filter0_i_1_2)">
<path d="M697 0H25C11.1929 0 0 11.1929 0 25V433C0 446.807 11.1929 458 25 458H697C710.807 458 722 446.807 722 433V25C722 11.1929 710.807 0 697 0Z" fill="url(#paint0_linear_1_2)"/>
</g>
<path d="M581.889 132.248C607.156 132.248 627.64 111.764 627.64 86.4971C627.64 61.2298 607.156 40.7466 581.889 40.7466C556.622 40.7466 536.138 61.2298 536.138 86.4971C536.138 111.764 556.622 132.248 581.889 132.248Z" fill="#E71924"/>
<path d="M637.647 132.248C662.914 132.248 683.398 111.764 683.398 86.4971C683.398 61.2298 662.914 40.7466 637.647 40.7466C612.38 40.7466 591.896 61.2298 591.896 86.4971C591.896 111.764 612.38 132.248 637.647 132.248Z" fill="#F99F19"/>
<path fill-rule="evenodd" clip-rule="evenodd" d="M609.768 122.595C620.636 114.23 627.64 101.092 627.64 86.3172C627.64 71.5427 620.636 58.404 609.768 50.0396C598.9 58.404 591.897 71.5427 591.897 86.3172C591.897 101.092 598.9 114.23 609.768 122.595Z" fill="#F26520"/>
<path d="M172.279 156.195H86.4971C83.1413 156.195 80.4209 158.915 80.4209 162.271V219.459C80.4209 222.815 83.1413 225.536 86.4971 225.536H172.279C175.635 225.536 178.356 222.815 178.356 219.459V162.271C178.356 158.915 175.635 156.195 172.279 156.195Z" fill="url(#paint1_linear_1_2)" stroke="#211F21" stroke-width="2.14455"/>
<path d="M80.7783 178.713H110.087" stroke="#211F21" stroke-width="2" stroke-linecap="round"/>
<path d="M80.7783 200.873H109.445" stroke="#211F21" stroke-width="2" stroke-linecap="round"/>
<path d="M149.404 200.873H177.998" stroke="#211F21" stroke-width="2" stroke-linecap="round"/>
<path d="M148.975 179.428H177.998" stroke="#211F21" stroke-width="2" stroke-linecap="round"/>
<path d="M129.388 168.706C130.572 168.706 131.533 167.745 131.533 166.561C131.533 165.377 130.572 164.416 129.388 164.416C128.204 164.416 127.243 165.377 127.243 166.561C127.243 167.745 128.204 168.706 129.388 168.706Z" fill="#211F21"/>
<path d="M231.053 205.824C236.325 192.59 236.926 185.119 231.053 171.645C230.43 170.215 231.053 169.024 231.768 168.786C232.483 168.547 233.589 168.786 234.27 170.215C241.188 184.73 240.767 192.87 234.627 207.387C233.912 208.817 232.575 208.998 231.768 208.46C230.824 207.831 230.608 206.941 231.053 205.824Z" fill="#FBF8FC"/>
<path d="M223.547 172.717C222.832 173.075 222.375 174.43 223.19 175.934C227.999 185.94 227.801 191.662 223.19 202.026C222.686 203.071 222.998 204.226 223.905 204.528C224.977 204.886 225.913 204.125 226.406 203.098C231.701 192.084 231.84 185.756 226.406 174.147C225.905 173.075 224.619 172.181 223.547 172.717Z" fill="#FBF8FC"/>
<path d="M216.399 177.364C215.326 177.721 215.136 178.908 215.684 180.223C218.53 187.063 218.979 190.898 215.684 197.737C215.041 198.929 214.83 200.193 216.041 200.596C217.252 201 218.126 200.363 218.543 199.524C222.766 191.149 221.82 186.454 218.543 178.079C218.263 177.364 217.471 177.006 216.399 177.364Z" fill="#FBF8FC"/>
<path d="M208.893 180.223C207.82 180.938 207.668 182.022 208.535 183.797C210.344 187.564 210.303 189.68 208.535 193.448C207.713 195.11 207.463 197.022 208.893 197.38C210.322 197.737 210.957 197.229 211.752 195.235C213.578 189.987 213.756 187.02 211.752 181.653C211.291 180.261 210.322 179.508 208.893 180.223Z" fill="#FBF8FC"/>
<path d="M145.115 170.849C142.372 161.508 137.251 156.91 129.03 156.91C119.023 156.91 116.194 164.53 110.087 178.355C113.998 187.507 114.039 192.437 110.087 200.873C116.494 219.254 121.24 224.915 129.388 224.821C140.111 224.821 143.163 215.733 149.046 200.873C145.952 192.497 145.622 187.875 148.5 179.5" stroke="#211F21" stroke-width="2" stroke-linecap="round"/>
<path d="M228.28 362.16V348.048H232.744V362.16H228.28ZM223.48 348.528V344.64H237.544V348.528H223.48ZM236.598 362.16L242.214 344.64H249.366L255.174 362.16H250.566L246.054 347.76L247.326 348.24H244.158L245.454 347.76L241.062 362.16H236.598ZM241.182 358.104L242.526 354.456H249.174L250.518 358.104H241.182ZM257.143 362.16V344.496H261.607V362.16H257.143ZM267.703 362.16L262.783 354.72H267.631L272.839 362.16H267.703ZM260.479 356.784V353.352H264.679C265.207 353.352 265.663 353.248 266.047 353.04C266.431 352.832 266.727 352.536 266.935 352.152C267.159 351.768 267.271 351.32 267.271 350.808C267.271 350.28 267.159 349.824 266.935 349.44C266.727 349.056 266.431 348.76 266.047 348.552C265.663 348.344 265.207 348.24 264.679 348.24H260.479V344.496H264.415C265.935 344.496 267.247 344.728 268.351 345.192C269.455 345.64 270.303 346.312 270.895 347.208C271.487 348.088 271.783 349.184 271.783 350.496V350.88C271.783 352.192 271.479 353.288 270.871 354.168C270.279 355.032 269.431 355.688 268.327 356.136C267.239 356.568 265.935 356.784 264.415 356.784H260.479ZM282.905 362.64C281.321 362.64 279.961 362.368 278.825 361.824C277.689 361.264 276.753 360.536 276.017 359.64C275.281 358.728 274.737 357.744 274.385 356.688C274.033 355.632 273.857 354.608 273.857 353.616V353.088C273.857 351.984 274.033 350.904 274.385 349.848C274.753 348.776 275.305 347.808 276.041 346.944C276.793 346.08 277.729 345.392 278.849 344.88C279.969 344.368 281.281 344.112 282.785 344.112C284.385 344.112 285.801 344.416 287.033 345.024C288.281 345.616 289.281 346.456 290.033 347.544C290.785 348.616 291.225 349.864 291.353 351.288H286.889C286.777 350.68 286.537 350.152 286.169 349.704C285.801 349.256 285.329 348.912 284.753 348.672C284.177 348.416 283.521 348.288 282.785 348.288C282.097 348.288 281.473 348.408 280.913 348.648C280.369 348.888 279.905 349.232 279.521 349.68C279.153 350.112 278.865 350.64 278.657 351.264C278.465 351.888 278.369 352.592 278.369 353.376C278.369 354.16 278.465 354.864 278.657 355.488C278.865 356.112 279.161 356.648 279.545 357.096C279.945 357.544 280.425 357.888 280.985 358.128C281.545 358.352 282.185 358.464 282.905 358.464C284.025 358.464 284.969 358.192 285.737 357.648C286.521 357.104 286.993 356.376 287.153 355.464H291.617C291.473 356.776 291.033 357.976 290.297 359.064C289.561 360.152 288.569 361.024 287.321 361.68C286.073 362.32 284.601 362.64 282.905 362.64ZM294.012 362.16V344.64H298.476V362.16H294.012ZM310.665 362.64C309.065 362.64 307.673 362.368 306.489 361.824C305.305 361.264 304.321 360.536 303.537 359.64C302.753 358.728 302.169 357.744 301.785 356.688C301.401 355.632 301.209 354.608 301.209 353.616V353.088C301.209 351.984 301.409 350.904 301.809 349.848C302.209 348.776 302.809 347.808 303.609 346.944C304.409 346.08 305.393 345.392 306.561 344.88C307.745 344.368 309.113 344.112 310.665 344.112C312.201 344.112 313.553 344.368 314.721 344.88C315.905 345.392 316.897 346.08 317.697 346.944C318.497 347.808 319.097 348.776 319.497 349.848C319.913 350.904 320.121 351.984 320.121 353.088V353.616C320.121 354.608 319.921 355.632 319.521 356.688C319.137 357.744 318.553 358.728 317.769 359.64C316.985 360.536 316.001 361.264 314.817 361.824C313.633 362.368 312.249 362.64 310.665 362.64ZM310.665 358.464C311.433 358.464 312.121 358.336 312.729 358.08C313.337 357.824 313.857 357.464 314.289 357C314.721 356.536 315.049 356 315.273 355.392C315.497 354.768 315.609 354.096 315.609 353.376C315.609 352.608 315.489 351.912 315.249 351.288C315.025 350.664 314.697 350.128 314.265 349.68C313.833 349.232 313.313 348.888 312.705 348.648C312.097 348.408 311.417 348.288 310.665 348.288C309.897 348.288 309.209 348.408 308.601 348.648C307.993 348.888 307.473 349.232 307.041 349.68C306.609 350.128 306.281 350.664 306.057 351.288C305.833 351.912 305.721 352.608 305.721 353.376C305.721 354.096 305.833 354.768 306.057 355.392C306.281 356 306.609 356.536 307.041 357C307.473 357.464 307.993 357.824 308.601 358.08C309.209 358.336 309.897 358.464 310.665 358.464ZM327.714 362.16V344.496H332.178V362.16H327.714ZM338.273 362.16L333.354 354.72H338.202L343.41 362.16H338.273ZM331.05 356.784V353.352H335.25C335.778 353.352 336.234 353.248 336.618 353.04C337.002 352.832 337.298 352.536 337.506 352.152C337.73 351.768 337.842 351.32 337.842 350.808C337.842 350.28 337.73 349.824 337.506 349.44C337.298 349.056 337.002 348.76 336.618 348.552C336.234 348.344 335.778 348.24 335.25 348.24H331.05V344.496H334.986C336.506 344.496 337.818 344.728 338.922 345.192C340.026 345.64 340.874 346.312 341.466 347.208C342.058 348.088 342.354 349.184 342.354 350.496V350.88C342.354 352.192 342.05 353.288 341.442 354.168C340.85 355.032 340.002 355.688 338.898 356.136C337.81 356.568 336.506 356.784 334.986 356.784H331.05ZM353.884 362.64C352.284 362.64 350.892 362.368 349.708 361.824C348.524 361.264 347.54 360.536 346.756 359.64C345.972 358.728 345.388 357.744 345.004 356.688C344.62 355.632 344.428 354.608 344.428 353.616V353.088C344.428 351.984 344.628 350.904 345.028 349.848C345.428 348.776 346.028 347.808 346.828 346.944C347.628 346.08 348.612 345.392 349.78 344.88C350.964 344.368 352.332 344.112 353.884 344.112C355.42 344.112 356.772 344.368 357.94 344.88C359.124 345.392 360.116 346.08 360.916 346.944C361.716 347.808 362.316 348.776 362.716 349.848C363.132 350.904 363.34 351.984 363.34 353.088V353.616C363.34 354.608 363.14 355.632 362.74 356.688C362.356 357.744 361.772 358.728 360.988 359.64C360.204 360.536 359.22 361.264 358.036 361.824C356.852 362.368 355.468 362.64 353.884 362.64ZM353.884 358.464C354.652 358.464 355.34 358.336 355.948 358.08C356.556 357.824 357.076 357.464 357.508 357C357.94 356.536 358.268 356 358.492 355.392C358.716 354.768 358.828 354.096 358.828 353.376C358.828 352.608 358.708 351.912 358.468 351.288C358.244 350.664 357.916 350.128 357.484 349.68C357.052 349.232 356.532 348.888 355.924 348.648C355.316 348.408 354.636 348.288 353.884 348.288C353.116 348.288 352.428 348.408 351.82 348.648C351.212 348.888 350.692 349.232 350.26 349.68C349.828 350.128 349.5 350.664 349.276 351.288C349.052 351.912 348.94 352.608 348.94 353.376C348.94 354.096 349.052 354.768 349.276 355.392C349.5 356 349.828 356.536 350.26 357C350.692 357.464 351.212 357.824 351.82 358.08C352.428 358.336 353.116 358.464 353.884 358.464ZM374.218 362.64C372.634 362.64 371.274 362.368 370.138 361.824C369.002 361.264 368.066 360.536 367.33 359.64C366.594 358.728 366.05 357.744 365.698 356.688C365.346 355.632 365.17 354.608 365.17 353.616V353.088C365.17 351.984 365.346 350.904 365.698 349.848C366.066 348.776 366.618 347.808 367.354 346.944C368.106 346.08 369.042 345.392 370.162 344.88C371.282 344.368 372.594 344.112 374.098 344.112C375.698 344.112 377.114 344.416 378.346 345.024C379.594 345.616 380.594 346.456 381.346 347.544C382.098 348.616 382.538 349.864 382.666 351.288H378.202C378.09 350.68 377.85 350.152 377.482 349.704C377.114 349.256 376.642 348.912 376.066 348.672C375.49 348.416 374.834 348.288 374.098 348.288C373.41 348.288 372.786 348.408 372.226 348.648C371.682 348.888 371.218 349.232 370.834 349.68C370.466 350.112 370.178 350.64 369.97 351.264C369.778 351.888 369.682 352.592 369.682 353.376C369.682 354.16 369.778 354.864 369.97 355.488C370.178 356.112 370.474 356.648 370.858 357.096C371.258 357.544 371.738 357.888 372.298 358.128C372.858 358.352 373.498 358.464 374.218 358.464C375.338 358.464 376.282 358.192 377.05 357.648C377.834 357.104 378.306 356.376 378.466 355.464H382.93C382.786 356.776 382.346 357.976 381.61 359.064C380.874 360.152 379.882 361.024 378.634 361.68C377.386 362.32 375.914 362.64 374.218 362.64ZM396.412 362.16V344.64H400.876V362.16H396.412ZM385.276 362.16V344.64H389.74V362.16H385.276ZM388.972 355.272V351.384H397.18V355.272H388.972ZM402.84 362.16L408.456 344.64H415.608L421.416 362.16H416.808L412.296 347.76L413.568 348.24H410.4L411.696 347.76L407.304 362.16H402.84ZM407.424 358.104L408.768 354.456H415.416L416.76 358.104H407.424Z" fill="white"/>
<path d="M125.844 307.589L128.302 312.868C103.422 317.444 86.8353 339.264 88.0639 364.429C88.8318 391.529 101.886 410.382 123.387 411.942C135.52 412.822 146.27 403.671 147.499 388.889C148.35 378.655 141.509 370.94 132.602 370.588C127.175 370.373 121.391 374.811 121.391 381.146C121.391 384.842 123.694 388.185 126.305 388.361C127.256 388.425 128.028 388.124 129.069 387.305C127.697 386.838 126.919 385.901 126.919 383.786C126.919 381.322 128.609 379.562 130.759 379.562C132.755 379.562 135.213 381.146 135.213 385.018C135.213 389.945 130.759 393.816 126.152 393.816C120.623 393.816 115.401 388.361 115.401 380.266C115.401 369.356 123.234 361.684 137.209 361.613C143.581 361.581 147.084 362.122 153.181 364.429L152.874 361.613C152.413 355.982 148.113 353.166 141.663 352.638L136.441 352.111V351.583C152.106 351.935 164.546 340.848 169 326.242C162.703 313.22 148.113 301.958 133.37 301.078C129.223 300.55 126.459 302.838 125.844 303.894C124.941 305.446 125.23 306.181 125.844 307.589Z" fill="white"/>
<path d="M136.385 350.992C152.077 351.343 164.538 340.291 169 325.73C166.365 328.535 164.668 330.075 161.154 330.116C157.64 330.156 155.615 327.133 150.231 325.73C144.846 324.326 131 325.379 131 325.379C134.492 335.141 136.25 340.648 136.385 350.992Z" fill="white"/>
<path d="M126.318 394.434C120.727 394.434 115.447 388.933 115.447 380.769C115.452 378.462 115.765 377.126 116.379 374.735C109.701 389.465 117.932 408.516 130.511 408.987C139.984 409.342 146.662 402.243 147.905 389.465C148.907 379.16 141.848 371.362 132.841 371.008C127.353 370.791 121.504 375.267 121.504 381.656C121.504 385.383 123.833 388.755 126.473 388.933C127.435 388.997 128.216 388.694 129.269 387.868C127.881 387.396 127.095 386.451 127.095 384.318C127.095 381.834 128.803 380.059 130.977 380.059C132.996 380.059 135.481 381.656 135.481 385.561C135.481 390.53 130.977 394.434 126.318 394.434Z" fill="white"/>
<path d="M126 331C103.18 334.961 93.1391 361.656 108.048 393C109.311 355.094 114.007 339.86 126 331Z" fill="url(#paint2_linear_1_2)"/>
<ellipse cx="143" cy="317.5" rx="4" ry="4.5" fill="#A950C4" fill-opacity="0.88"/>
<circle cx="143" cy="318" r="1" fill="white"/>
<defs>
<filter id="filter0_i_1_2" x="0" y="0" width="725" height="461" filterUnits="userSpaceOnUse" color-interpolation-filters="sRGB">
<feFlood flood-opacity="0" result="BackgroundImageFix"/>
<feBlend mode="normal" in="SourceGraphic" in2="BackgroundImageFix" result="shape"/>
<feColorMatrix in="SourceAlpha" type="matrix" values="0 0 0 0 0 0 0 0 0 0 0 0 0 0 0 0 0 0 127 0" result="hardAlpha"/>
<feOffset dx="3" dy="3"/>
<feGaussianBlur stdDeviation="3"/>
<feComposite in2="hardAlpha" operator="arithmetic" k2="-1" k3="1"/>
<feColorMatrix type="matrix" values="0 0 0 0 1 0 0 0 0 1 0 0 0 0 1 0 0 0 0.25 0"/>
<feBlend mode="normal" in2="shape" result="effect1_innerShadow_1_2"/>
</filter>
<linearGradient id="paint0_linear_1_2" x1="610.09" y1="61.83" x2="354.096" y2="526.995" gradientUnits="userSpaceOnUse">
<stop stop-color="#A950C4"/>
<stop offset="1" stop-color="#82269E"/>
</linearGradient>
<linearGradient id="paint1_linear_1_2" x1="171" y1="165" x2="87" y2="221" gradientUnits="userSpaceOnUse">
<stop stop-color="#F4F4F4"/>
<stop offset="1" stop-color="#D6D6D6"/>
</linearGradient>
<linearGradient id="paint2_linear_1_2" x1="113.5" y1="331" x2="113.5" y2="393" gradientUnits="userSpaceOnUse">
<stop stop-color="#A950C4" stop-opacity="0.88"/>
<stop offset="1" stop-color="#A950C4"/>
</linearGradient>
</defs>
</svg>
